# xmcd
#
# Track frame offsets:
#	150
#	14065
#	27411
#	39888
#	50966
#	64692
#	77311
#	85929
#	96449
#	105552
#	117103
#	128915
#	141177
#	152471
#	158521
#	166004
#	178390
#	192754
#	202527
#	213086
#	232197
#	244483
#	255742
#	266755
#	273760
#	285501
#	293914
#	305664
#	315435
#	331346
#
# Disc length: 4692
#
# Revision: 2
# Processed by: cddbd v1.5.1PL0 Copyright (c) Steve Scherf et al.
# Submitted via: audiograbber 1.82.01
# Normalized: r1:DSETVAR1
#
DISCID=a212521e
DTITLE=Various Artist - DJ Ty Boogie - Blend City Num. 10
DYEAR=2003
DGENRE=R&B
TTITLE0=Beyonce Feat. Jay-Z - Crazy In Love (Flipside, Damn)
TTITLE1=Ashanti - Rock With You (Remix) (Nothing, Crazy In Love)
TTITLE2=Lumidee Feat. Busta and Fabolous - Never Leave (Remix) (Frontin)
TTITLE3=Elephant Man - Pon Di River (Never Leave, When You Hear That)
TTITLE4=Beyonce Feat. Sean Paul - Baby Boy (50 Cent, Thoia Song)
TTITLE5=112 Feat. Supercat - Na, Na, Na (Snake Remix)
TTITLE6=Pharell Feat. Jay-Z - Frontin (Cop That Shit)
TTITLE7=Mary J Blige - Love @ First Sight (Excuse Me Miss Remix)
TTITLE8=Missy Feat Free and Beyonce - Fighting Temptations (Work It)
TTITLE9=Beyonce - Summertime (Can't Let U Go, Down 4 Me)
TTITLE10=Fabolous Feat. Tamia - Can't Let U Go (Step In The Name Of Love)
TTITLE11=R. Kelly - Step In The Name Of Love (Outstanding, Fools Paradise)
TTITLE12=Mary Feat. G-Unit - Ooh (Remix) (Right There)
TTITLE13=ATL - Callin All Girls (In The Club)
TTITLE14=Lumidee Feat. NORE - Crashing A Party (All Eyez On Me 50)
TTITLE15=112 Feat. Ludacris - Hot and Wet (Lights, Camera, Action)
TTITLE16=Kelis - Milkshake (Lolipop)
TTITLE17=Joe Budden Feat. Busta - Fire (Holla Back Youngin)
TTITLE18=Freeway - Flipside (Pump It Up)
TTITLE19=Rocafella Freestyle Blend - Get Low
TTITLE20=DMX - Wheres The Hood At (Banned From TV, 357)
TTITLE21=Ludacris - Stand Up (What Happend To That Boy, Cot Damn)
TTITLE22=Lil Jon - Get Low (Can't Stop, Won't Stop)
TTITLE23=Camron - Freestyle (Hovi Baby)
TTITLE24=50 Cent - High All The Time (Damn)
TTITLE25=Juelz Santana - Dipset (You Don't Know)
TTITLE26=50 Cent - Pimp (Explosive)
TTITLE27=Monica - So Gone (Remix) (One For Peedie)
TTITLE28=Ashanti - Rain On Me (Excuse Me Miss)
TTITLE29=Ginuwine - In Those Jeans (Jigga What, Big Pimpin, Is That You Chick)
EXTD=
EXTT0=
EXTT1=
EXTT2=
EXTT3=
EXTT4=
EXTT5=
EXTT6=
EXTT7=
EXTT8=
EXTT9=
EXTT10=
EXTT11=
EXTT12=
EXTT13=
EXTT14=
EXTT15=
EXTT16=
EXTT17=
EXTT18=
EXTT19=
EXTT20=
EXTT21=
EXTT22=
EXTT23=
EXTT24=
EXTT25=
EXTT26=
EXTT27=
EXTT28=
EXTT29=
PLAYORDER=
